<svg width="40" height="40" viewBox="0 0 40 40" fill="none" xmlns="http://www.w3.org/2000/svg">
<g clip-path="url(#clip0_3171_974)">
<path d="M39.9999 20C39.9999 31.0456 31.0457 40 20 40C8.9543 40 4.16666e-06 31.0456 0 20C-4.16666e-06 8.95432 8.9543 4.16666e-06 20 0C31.0456 -4.16666e-06 39.9999 8.95432 39.9999 20Z" fill="url(#paint0_linear_3171_974)"/>
<path fill-rule="evenodd" clip-rule="evenodd" d="M20.0002 9.20001C14.0355 9.20001 9.2002 14.0353 9.2002 20C9.2002 20.5854 9.24677 21.1599 9.33641 21.72C9.39568 22.1024 9.61912 22.9316 10.0387 23.1895C10.5624 23.5112 11.1552 23.2346 11.6404 23.0082L11.6427 23.0071C12.0312 22.8258 13.1718 22.2941 13.6936 22.0509C13.813 21.9914 14.1286 21.9117 14.4355 22.0688C14.819 22.2652 14.9317 22.6685 14.9088 22.909C14.886 23.1495 14.7566 23.467 14.4298 23.6184C14.1684 23.7396 12.6299 24.4567 11.8933 24.8C11.7352 24.8611 11.3852 25.0902 11.2497 25.5174C11.0803 26.0514 11.3444 26.4635 11.4369 26.5819C11.506 26.6761 11.712 26.8863 11.983 26.9739C12.3217 27.0835 12.6126 27.0417 12.8398 26.9381C13.0215 26.8552 16.6265 25.1738 18.4063 24.3435C18.523 24.2857 18.8327 24.2102 19.1386 24.3708C19.5209 24.5717 19.631 24.9502 19.6117 25.1838C19.5924 25.4175 19.463 25.7612 19.1443 25.9099C18.8894 26.0289 16.5217 27.1313 15.3697 27.6677C15.1666 27.7597 14.7543 28.0835 14.7302 28.6432C14.7001 29.3429 15.184 29.6745 15.3866 29.7678C15.5465 29.8502 15.967 29.9683 16.3703 29.7817C16.7735 29.5952 21.0587 27.5966 23.1508 26.6206C23.2749 26.5566 23.6121 26.4739 23.8996 26.6206C24.2761 26.8128 24.4011 27.1406 24.4011 27.3886C24.4011 27.6366 24.3899 27.8185 23.9976 28.1699C23.6544 28.4774 23.1508 28.7798 21.435 29.5111C20.8473 29.7615 20.4468 29.9459 20.5127 30.2621C20.5622 30.4997 20.7351 30.5901 21.3098 30.5641C21.8844 30.5381 24.4718 30.335 27.0639 28.1699C29.3524 26.1896 30.8002 23.2639 30.8002 20C30.8002 18.7973 30.6036 17.6405 30.2408 16.56C30.1175 16.6116 29.9822 16.64 29.8402 16.64C29.2658 16.64 28.8002 16.1744 28.8002 15.6C28.8002 15.1866 29.0414 14.8295 29.3908 14.6618C27.5324 11.3996 24.0232 9.20001 20.0002 9.20001ZM24.0001 16C24.0001 16.5744 23.5345 17.04 22.9601 17.04C22.3857 17.04 21.9201 16.5744 21.9201 16C21.9201 15.4256 22.3857 14.96 22.9601 14.96C23.5345 14.96 24.0001 15.4256 24.0001 16Z" fill="white"/>
</g>
<defs>
<linearGradient id="paint0_linear_3171_974" x1="20" y1="0" x2="20" y2="40" gradientUnits="userSpaceOnUse">
<stop stop-color="#6246F5"/>
<stop offset="0.493007" stop-color="#5166EE"/>
<stop offset="1" stop-color="#56B9F9"/>
</linearGradient>
<clipPath id="clip0_3171_974">
<rect width="40" height="40" fill="white"/>
</clipPath>
</defs>
</svg>
