<svg width="48" height="48" viewBox="0 0 48 48" fill="none" xmlns="http://www.w3.org/2000/svg">
<rect width="48" height="48" rx="12" fill="white"/>
<g clip-path="url(#clip0_3171_925)">
<path d="M38 24C38 31.7319 31.732 38 24 38C16.268 38 10 31.7319 10 24C10 16.268 16.268 10 24 10C31.7319 10 38 16.268 38 24Z" fill="url(#paint0_linear_3171_925)"/>
<path fill-rule="evenodd" clip-rule="evenodd" d="M23.9999 16.44C19.8247 16.44 16.4399 19.8247 16.4399 24C16.4399 24.4098 16.4725 24.8119 16.5353 25.204C16.5768 25.4717 16.7332 26.0521 17.0269 26.2326C17.3935 26.4579 17.8084 26.2642 18.1481 26.1057L18.1497 26.105C18.4216 25.978 19.2201 25.6059 19.5853 25.4356C19.6689 25.394 19.8898 25.3382 20.1046 25.4482C20.3731 25.5856 20.452 25.868 20.436 26.0363C20.42 26.2046 20.3294 26.4269 20.1007 26.5329C19.9177 26.6177 18.8407 27.1197 18.3251 27.36C18.2145 27.4028 17.9694 27.5631 17.8746 27.8621C17.756 28.236 17.9409 28.5244 18.0056 28.6073C18.054 28.6732 18.1982 28.8204 18.3879 28.8817C18.625 28.9585 18.8286 28.9292 18.9876 28.8566C19.1148 28.7986 21.6384 27.6217 22.8842 27.0405C22.9659 27 23.1827 26.9471 23.3968 27.0596C23.6644 27.2002 23.7415 27.4651 23.728 27.6287C23.7145 27.7922 23.6239 28.0328 23.4008 28.1369C23.2224 28.2202 21.565 28.9919 20.7586 29.3674C20.6164 29.4318 20.3278 29.6584 20.311 30.0503C20.2899 30.54 20.6286 30.7722 20.7704 30.8374C20.8823 30.8951 21.1767 30.9778 21.459 30.8472C21.7413 30.7166 24.7409 29.3176 26.2054 28.6344C26.2922 28.5896 26.5283 28.5318 26.7295 28.6344C26.993 28.7689 27.0806 28.9984 27.0806 29.172C27.0806 29.3456 27.0727 29.4729 26.7981 29.7189C26.5579 29.9341 26.2054 30.1459 25.0043 30.6578C24.5929 30.8331 24.3126 30.9621 24.3587 31.1835C24.3933 31.3498 24.5144 31.4131 24.9166 31.3949C25.3189 31.3767 27.1301 31.2345 28.9445 29.7189C30.5465 28.3327 31.5599 26.2847 31.5599 24C31.5599 23.1581 31.4223 22.3484 31.1684 21.592C31.0821 21.6281 30.9873 21.648 30.8879 21.648C30.4859 21.648 30.1599 21.3221 30.1599 20.92C30.1599 20.6306 30.3288 20.3806 30.5734 20.2633C29.2725 17.9797 26.816 16.44 23.9999 16.44ZM26.7999 21.2C26.7999 21.6021 26.474 21.928 26.0719 21.928C25.6699 21.928 25.3439 21.6021 25.3439 21.2C25.3439 20.7979 25.6699 20.472 26.0719 20.472C26.474 20.472 26.7999 20.7979 26.7999 21.2Z" fill="white"/>
</g>
<defs>
<linearGradient id="paint0_linear_3171_925" x1="24" y1="10" x2="24" y2="38" gradientUnits="userSpaceOnUse">
<stop stop-color="#6246F5"/>
<stop offset="0.493007" stop-color="#5166EE"/>
<stop offset="1" stop-color="#56B9F9"/>
</linearGradient>
<clipPath id="clip0_3171_925">
<rect width="28" height="28" fill="white" transform="translate(10 10)"/>
</clipPath>
</defs>
</svg>
