<svg width="16" height="16" viewBox="0 0 16 16" fill="none" xmlns="http://www.w3.org/2000/svg">
<g clip-path="url(#clip0_3255_92)">
<path d="M8 16C12.4334 16 16 12.4334 16 8C16 3.56664 12.4334 0 8 0C3.56664 0 0 3.56664 0 8C0 12.4334 3.56664 16 8 16Z" fill="#2775CA"/>
<path d="M10.2 9.26662C10.2 8.09998 9.50004 7.69998 8.10004 7.53334C7.10004 7.39998 6.90004 7.13334 6.90004 6.66662C6.90004 6.1999 7.2334 5.89998 7.90004 5.89998C8.50004 5.89998 8.8334 6.09998 9.00004 6.59998C9.0334 6.69998 9.1334 6.76662 9.2334 6.76662H9.76668C9.90004 6.76662 10 6.66662 10 6.53334V6.49998C9.86668 5.76662 9.26668 5.19998 8.50004 5.13334V4.33334C8.50004 4.19998 8.40004 4.09998 8.2334 4.06662H7.7334C7.60004 4.06662 7.50004 4.16662 7.46668 4.33334V5.09998C6.46668 5.23334 5.8334 5.89998 5.8334 6.73334C5.8334 7.83334 6.50004 8.26662 7.90004 8.43334C8.8334 8.59998 9.1334 8.79998 9.1334 9.33334C9.1334 9.8667 8.66668 10.2333 8.0334 10.2333C7.16668 10.2333 6.86668 9.86662 6.76668 9.36662C6.7334 9.23334 6.6334 9.16662 6.5334 9.16662H5.96668C5.8334 9.16662 5.7334 9.26662 5.7334 9.39998V9.43334C5.86668 10.2666 6.40004 10.8666 7.50004 11.0333V11.8333C7.50004 11.9666 7.60004 12.0666 7.76668 12.1H8.26668C8.40004 12.1 8.50004 12 8.5334 11.8333V11.0333C9.5334 10.8666 10.2 10.1666 10.2 9.26662Z" fill="white"/>
<path fill-rule="evenodd" clip-rule="evenodd" d="M3.33328 6.36662C2.36656 8.93334 3.69992 11.8333 6.29992 12.7666C6.39992 12.8333 6.49992 12.9666 6.49992 13.0666V13.5333C6.49992 13.6 6.49992 13.6333 6.46656 13.6666C6.43328 13.8 6.29992 13.8666 6.16656 13.8C4.29992 13.2 2.86656 11.7666 2.26656 9.89998C1.26656 6.73334 2.99992 3.36662 6.16656 2.36662C6.19992 2.33334 6.26656 2.33334 6.29992 2.33334C6.43328 2.36662 6.49992 2.46662 6.49992 2.59998V3.06662C6.49992 3.23334 6.43328 3.33334 6.29992 3.39998C4.93328 3.89998 3.83328 4.96662 3.33328 6.36662ZM9.53328 2.50001C9.56656 2.36665 9.69992 2.30001 9.83328 2.36665C11.6666 2.96665 13.1333 4.40001 13.7333 6.30001C14.7333 9.46665 12.9999 12.8334 9.83328 13.8334C9.79992 13.8666 9.73328 13.8666 9.69992 13.8666C9.56656 13.8334 9.49992 13.7334 9.49992 13.6V13.1334C9.49992 12.9666 9.56656 12.8666 9.69992 12.8C11.0666 12.3 12.1666 11.2334 12.6666 9.83337C13.6333 7.26665 12.2999 4.36665 9.69992 3.43337C9.59992 3.36665 9.49992 3.23337 9.49992 3.10001V2.63337C9.49992 2.56665 9.49992 2.53337 9.53328 2.50001Z" fill="white"/>
</g>
<defs>
<clipPath id="clip0_3255_92">
<rect width="16" height="16" fill="white"/>
</clipPath>
</defs>
</svg>
