<svg width="16" height="16" viewBox="0 0 16 16" fill="none" xmlns="http://www.w3.org/2000/svg">
<g clip-path="url(#clip0_3255_702)">
<path d="M15.7606 9.93636C14.6921 14.2226 10.3508 16.8311 6.06404 15.7623C1.77909 14.6937 -0.829432 10.3522 0.239615 6.06627C1.30772 1.77955 5.64899 -0.829164 9.93441 0.239414C14.2208 1.30799 16.8292 5.65 15.7605 9.93644L15.7606 9.93636H15.7606Z" fill="#50AF95"/>
<path fill-rule="evenodd" clip-rule="evenodd" d="M9.01344 8.90801C8.95687 8.91225 8.66457 8.92969 8.01256 8.92969C7.49397 8.92969 7.12577 8.91413 6.99659 8.90801C4.99247 8.81985 3.49657 8.47097 3.49657 8.05327C3.49657 7.63557 4.99247 7.28717 6.99659 7.1976V8.56055C7.12765 8.56998 7.50293 8.59214 8.02152 8.59214C8.64383 8.59214 8.95545 8.56621 9.01156 8.56102V7.19854C11.0114 7.28764 12.504 7.63651 12.504 8.05327C12.504 8.47003 11.0119 8.8189 9.01156 8.90753L9.01344 8.90801ZM9.01336 7.05755V5.83792H11.8043V3.97806H4.20555V5.83792H6.99604V7.05708C4.72791 7.16127 3.02222 7.61056 3.02222 8.14895C3.02222 8.68734 4.72791 9.13616 6.99604 9.24082V13.1491H9.01289V9.23941C11.2758 9.13522 12.9787 8.6864 12.9787 8.14848C12.9787 7.61056 11.2773 7.16174 9.01289 7.05708L9.01336 7.05755Z" fill="white"/>
</g>
<defs>
<clipPath id="clip0_3255_702">
<rect width="16" height="16" fill="white"/>
</clipPath>
</defs>
</svg>
