<svg width="48" height="48" viewBox="0 0 48 48" fill="none" xmlns="http://www.w3.org/2000/svg">
<rect width="48" height="48" rx="12" fill="white"/>
<path fill-rule="evenodd" clip-rule="evenodd" d="M19.0099 21.735C16.7686 17.8525 19.5704 12.9997 24.0534 13C26.1338 13 28.0564 14.11 29.0967 15.9118C31.3382 19.7941 28.5363 24.647 24.0534 24.647C21.9728 24.647 20.0501 23.537 19.0099 21.735ZM14.3473 29.1856C17.2034 27.5329 20.5202 26.5883 24.0532 26.5883C27.4608 26.5832 30.8093 27.4794 33.759 29.1856L34.4061 29.5595V35H13.7002V29.5609L14.3473 29.1856Z" fill="#8FBFFA"/>
<path fill-rule="evenodd" clip-rule="evenodd" d="M19.0099 21.735C16.7686 17.8525 19.5704 12.9997 24.0534 13C26.1338 13 28.0564 14.11 29.0967 15.9118C31.3382 19.7941 28.5363 24.647 24.0534 24.647C21.9728 24.647 20.0501 23.537 19.0099 21.735ZM14.3473 29.1856C17.2034 27.5329 20.5202 26.5883 24.0532 26.5883C27.4608 26.5832 30.8093 27.4794 33.759 29.1856L34.4061 29.5595V35H13.7002V29.5609L14.3473 29.1856Z" fill="url(#paint0_linear_3171_954)"/>
<defs>
<linearGradient id="paint0_linear_3171_954" x1="24.0532" y1="13" x2="24.0532" y2="35" gradientUnits="userSpaceOnUse">
<stop stop-color="#6246F5"/>
<stop offset="0.493007" stop-color="#5166EE"/>
<stop offset="1" stop-color="#56B9F9"/>
</linearGradient>
</defs>
</svg>
