<svg width="36" height="36" viewBox="0 0 36 36" fill="none" xmlns="http://www.w3.org/2000/svg">
<path fill-rule="evenodd" clip-rule="evenodd" d="M10.5855 14.4786C7.3837 8.9322 11.3862 1.99964 17.7906 2C20.7625 2 23.5092 3.58578 24.9952 6.15965C28.1974 11.7058 24.1947 18.6386 17.7906 18.6386C14.8182 18.6386 12.0716 17.0528 10.5855 14.4786ZM3.92437 25.1223C8.00464 22.7614 12.7429 21.4119 17.79 21.4119C22.6581 21.4047 27.4415 22.6849 31.6555 25.1223L32.5799 25.6565V33.4287H3V25.6585L3.92437 25.1223Z" fill="#8FBFFA"/>
<path fill-rule="evenodd" clip-rule="evenodd" d="M10.5855 14.4786C7.3837 8.9322 11.3862 1.99964 17.7906 2C20.7625 2 23.5092 3.58578 24.9952 6.15965C28.1974 11.7058 24.1947 18.6386 17.7906 18.6386C14.8182 18.6386 12.0716 17.0528 10.5855 14.4786ZM3.92437 25.1223C8.00464 22.7614 12.7429 21.4119 17.79 21.4119C22.6581 21.4047 27.4415 22.6849 31.6555 25.1223L32.5799 25.6565V33.4287H3V25.6585L3.92437 25.1223Z" fill="url(#paint0_linear_3171_1010)"/>
<defs>
<linearGradient id="paint0_linear_3171_1010" x1="17.7899" y1="2" x2="17.7899" y2="33.4286" gradientUnits="userSpaceOnUse">
<stop stop-color="#6246F5"/>
<stop offset="0.493007" stop-color="#5166EE"/>
<stop offset="1" stop-color="#56B9F9"/>
</linearGradient>
</defs>
</svg>
