<?xml version="1.0" encoding="utf-8"?>
<!-- Generator: Adobe Illustrator 27.8.0, SVG Export Plug-In . SVG Version: 6.00 Build 0)  -->
<svg version="1.1" id="Layer_1" xmlns="http://www.w3.org/2000/svg" xmlns:xlink="http://www.w3.org/1999/xlink" x="0px" y="0px"
	 viewBox="0 0 618 217" style="enable-background:new 0 0 618 217;" xml:space="preserve">
<style type="text/css">
	.st0{clip-path:url(#SVGID_00000141444329729700155280000004423496178745008543_);}
	.st1{fill:url(#SVGID_00000058563049071137403050000004299826659910955398_);}
	.st2{fill:url(#SVGID_00000081613373861520860090000011886470663048026027_);fill-opacity:0.15;}
	.st3{fill:#FFFFFF;}
</style>
<g>
	<defs>
		<rect id="SVGID_1_" x="0.5" y="0.4" width="215.9" height="215.9"/>
	</defs>
	<clipPath id="SVGID_00000010274768440930259020000009686837703290440612_">
		<use xlink:href="#SVGID_1_"  style="overflow:visible;"/>
	</clipPath>
	<g style="clip-path:url(#SVGID_00000010274768440930259020000009686837703290440612_);">
		
			<linearGradient id="SVGID_00000180358480067862861230000003929930927304899713_" gradientUnits="userSpaceOnUse" x1="168.5258" y1="243.8679" x2="68.1279" y2="20.4011" gradientTransform="matrix(1 0 0 -1 0 218.5511)">
			<stop  offset="0.1564" style="stop-color:#5C34FF"/>
			<stop  offset="0.7814" style="stop-color:#00CCB7"/>
		</linearGradient>
		<path style="fill:url(#SVGID_00000180358480067862861230000003929930927304899713_);" d="M216.4,108.3c0,59.6-48.3,108-108,108
			c-59.6,0-108-48.3-108-108c0-59.6,48.3-108,108-108C168.1,0.4,216.4,48.7,216.4,108.3z"/>
		
			<radialGradient id="SVGID_00000084504447569866006670000016344815688963321729_" cx="-105.7546" cy="710.3391" r="1" gradientTransform="matrix(-36.5603 52.3106 52.3105 36.5602 -40910.8867 -20323.5547)" gradientUnits="userSpaceOnUse">
			<stop  offset="0.2328" style="stop-color:#000000"/>
			<stop  offset="1" style="stop-color:#000000;stop-opacity:0"/>
		</radialGradient>
		<path style="fill:url(#SVGID_00000084504447569866006670000016344815688963321729_);fill-opacity:0.15;" d="M216.4,108.3
			c0,59.6-48.3,108-108,108c-59.6,0-108-48.3-108-108c0-59.6,48.3-108,108-108C168.1,0.4,216.4,48.7,216.4,108.3z"/>
		<path class="st3" d="M108.5,50c21.7,0,40.7,11.9,50.7,29.5c-1.9,0.9-3.2,2.8-3.2,5.1c0,3.1,2.5,5.6,5.6,5.6c0.8,0,1.5-0.2,2.2-0.4
			c2,5.8,3,12.1,3,18.6c0,17.6-7.8,33.4-20.2,44.1c-14,11.7-28,12.8-31.1,12.9c-3.1,0.1-4-0.3-4.3-1.6c-0.4-1.7,1.8-2.7,5-4.1
			c9.3-3.9,12-5.6,13.8-7.2c2.1-1.9,2.2-2.9,2.2-4.2s-0.7-3.1-2.7-4.1c-1.6-0.8-3.4-0.3-4,0c-11.3,5.3-34.4,16.1-36.6,17.1
			c-2.2,1-4.4,0.4-5.3-0.1c-1.1-0.5-3.7-2.3-3.5-6.1c0.1-3,2.4-4.8,3.5-5.3c6.2-2.9,19-8.8,20.4-9.5c1.7-0.8,2.4-2.7,2.5-3.9
			c0.1-1.3-0.5-3.3-2.6-4.4c-1.7-0.9-3.3-0.5-4-0.1c-9.6,4.5-29.1,13.6-30,14c-1.2,0.6-2.8,0.8-4.6,0.2c-1.5-0.5-2.6-1.6-2.9-2.1
			c-0.5-0.6-1.9-2.9-1-5.7c0.7-2.3,2.6-3.5,3.5-3.9c4-1.9,12.3-5.7,13.7-6.4c1.8-0.8,2.5-2.5,2.6-3.8c0.1-1.3-0.5-3.5-2.6-4.5
			c-1.7-0.8-3.4-0.4-4-0.1c-2.8,1.3-9,4.2-11.1,5.2l0,0c-2.6,1.2-5.8,2.7-8.6,1c-2.3-1.4-3.5-5.9-3.8-7.9c-0.5-3-0.7-6.1-0.7-9.3
			C50.2,76.1,76.3,50,108.5,50z M124.5,81.1c-3.1,0-5.6,2.5-5.6,5.6c0,3.1,2.5,5.6,5.6,5.6c3.1,0,5.6-2.5,5.6-5.6
			C130.1,83.6,127.6,81.1,124.5,81.1z"/>
	</g>
</g>
<path d="M299.4,169.1c-9.5,0-17.7-1.9-24.7-5.6c-6.9-3.8-12.3-9.1-16.2-15.9c-3.8-6.8-5.7-14.9-5.7-24.1c0-9.4,1.9-17.5,5.7-24.3
	c3.9-6.8,9.4-12.1,16.4-15.8c7-3.7,15.2-5.6,24.6-5.6c9.6,0,17.7,1.9,24.6,5.6c6.9,3.7,12.3,9,16.1,15.8c3.8,6.8,5.7,14.9,5.7,24.3
	c0,9.3-1.9,17.4-5.7,24.3c-3.8,6.8-9.2,12.1-16.1,15.8C317.1,167.2,308.9,169.1,299.4,169.1z M299.4,150.1c7.8,0,13.8-2.3,18.1-7
	c4.3-4.8,6.4-11.3,6.4-19.6c0-8.4-2.1-14.9-6.4-19.6c-4.3-4.7-10.3-7-18.1-7c-7.9,0-14,2.3-18.4,7c-4.3,4.7-6.4,11.2-6.4,19.5
	c0,8.4,2.1,15,6.4,19.7C285.4,147.7,291.5,150.1,299.4,150.1z M359.7,167.3V44.4h21.8v69h0.6l37-33.9h26L407,114.1l41.3,53.2h-25.7
	l-30.7-39.9l-10.2,8.3v31.6H359.7z M484.5,167.3c-5.8,0-10.2-1.5-13.5-4.4c-3.1-2.9-4.7-7.4-4.7-13.3V96.5h-15.5v-17h15.7V53.2h21.4
	v26.3H509v17h-20.9v53.7h23v17.1H484.5z M564.9,169.1c-9.5,0-17.7-1.9-24.7-5.6c-6.9-3.8-12.3-9.1-16.2-15.9
	c-3.8-6.8-5.7-14.9-5.7-24.1c0-9.4,1.9-17.5,5.7-24.3c3.9-6.8,9.4-12.1,16.4-15.8c7-3.7,15.2-5.6,24.6-5.6c9.6,0,17.7,1.9,24.6,5.6
	c6.9,3.7,12.3,9,16.1,15.8c3.8,6.8,5.7,14.9,5.7,24.3c0,9.3-1.9,17.4-5.7,24.3c-3.8,6.8-9.2,12.1-16.1,15.8
	C582.5,167.2,574.3,169.1,564.9,169.1z M564.9,150.1c7.8,0,13.8-2.3,18.1-7c4.3-4.8,6.4-11.3,6.4-19.6c0-8.4-2.1-14.9-6.4-19.6
	c-4.3-4.7-10.3-7-18.1-7c-7.9,0-14,2.3-18.4,7c-4.3,4.7-6.4,11.2-6.4,19.5c0,8.4,2.1,15,6.4,19.7C550.8,147.7,557,150.1,564.9,150.1
	z"/>
</svg>
