<svg width="618" height="217" viewBox="0 0 618 217" fill="none" xmlns="http://www.w3.org/2000/svg">
<g clip-path="url(#clip0_5706_4193)">
<path d="M216.438 108.326C216.438 167.948 168.106 216.281 108.484 216.281C48.8619 216.281 0.528831 167.948 0.528809 108.326C0.528786 48.7043 48.8619 0.371116 108.484 0.371094C168.105 0.371071 216.438 48.7043 216.438 108.326Z" fill="url(#paint0_linear_5706_4193)"/>
<path d="M216.438 108.326C216.438 167.948 168.106 216.281 108.484 216.281C48.8619 216.281 0.528831 167.948 0.528809 108.326C0.528786 48.7043 48.8619 0.371116 108.484 0.371094C168.105 0.371071 216.438 48.7043 216.438 108.326Z" fill="url(#paint1_radial_5706_4193)" fill-opacity="0.15"/>
<path d="M108.484 50.0273C130.199 50.0274 149.14 61.9011 159.171 79.5098C157.286 80.4151 155.986 82.3433 155.986 84.5742C155.986 87.6744 158.499 90.1875 161.599 90.1875C162.365 90.1875 163.094 90.0325 163.759 89.7549C165.718 95.5871 166.78 101.831 166.78 108.323C166.78 125.941 158.964 141.733 146.612 152.422C132.62 164.109 118.654 165.204 115.552 165.345C112.451 165.485 111.517 164.997 111.249 163.715C110.894 162.008 113.056 161.013 116.228 159.661C125.489 155.714 128.208 154.081 130.06 152.422C132.177 150.525 132.239 149.543 132.239 148.205C132.239 146.867 131.564 145.097 129.532 144.06C127.98 143.268 126.159 143.714 125.49 144.06C114.197 149.328 91.0666 160.115 88.89 161.122C86.7134 162.129 84.4434 161.492 83.5804 161.047C82.4871 160.543 79.875 158.753 80.0375 154.977C80.1675 151.955 82.3932 150.207 83.4896 149.711C89.7079 146.816 102.487 140.865 103.864 140.223C105.584 139.42 106.282 137.565 106.386 136.304C106.49 135.042 105.896 133 103.832 131.916C102.181 131.049 100.51 131.455 99.8802 131.768C90.2737 136.249 70.8159 145.324 69.8334 145.772C68.6073 146.332 67.0368 146.558 65.2084 145.967C63.7458 145.494 62.6342 144.359 62.2611 143.851C61.7619 143.211 60.3364 140.987 61.2504 138.104C61.9817 135.799 63.8717 134.562 64.725 134.232C68.701 132.379 77.0053 128.508 78.4164 127.854C80.1802 127.037 80.8781 125.322 81.0013 124.024C81.1244 122.726 80.5166 120.55 78.4467 119.49C76.7904 118.642 75.0865 119.073 74.4418 119.394C71.6253 120.706 65.4684 123.576 63.3715 124.555L63.3597 124.561C60.7408 125.783 57.5408 127.276 54.7142 125.539C52.4495 124.147 51.2432 119.672 50.9232 117.607C50.4394 114.584 50.1879 111.483 50.1879 108.323C50.1879 76.1274 76.288 50.0273 108.484 50.0273ZM124.459 81.1221C121.359 81.1221 118.845 83.636 118.845 86.7363C118.845 89.8366 121.359 92.3496 124.459 92.3496C127.56 92.3494 130.073 89.8365 130.073 86.7363C130.073 83.6361 127.56 81.1222 124.459 81.1221Z" fill="white"/>
</g>
<path d="M299.441 169.08C289.982 169.08 281.742 167.227 274.72 163.521C267.796 159.718 262.384 154.403 258.483 147.576C254.68 140.75 252.778 132.705 252.778 123.44C252.778 114.078 254.68 105.984 258.483 99.1576C262.384 92.3311 267.845 87.0651 274.866 83.3593C281.888 79.6535 290.08 77.8006 299.441 77.8006C308.998 77.8006 317.19 79.6535 324.017 83.3593C330.941 87.0651 336.304 92.3311 340.107 99.1576C343.911 105.984 345.812 114.078 345.812 123.44C345.812 132.705 343.911 140.799 340.107 147.723C336.304 154.549 330.941 159.815 324.017 163.521C317.093 167.227 308.901 169.08 299.441 169.08ZM299.441 150.063C307.243 150.063 313.289 147.723 317.58 143.042C321.871 138.263 324.017 131.729 324.017 123.44C324.017 115.053 321.871 108.52 317.58 103.839C313.289 99.1576 307.243 96.8171 299.441 96.8171C291.542 96.8171 285.399 99.1576 281.01 103.839C276.719 108.52 274.574 115.005 274.574 123.294C274.574 131.681 276.719 138.263 281.01 143.042C285.399 147.723 291.542 150.063 299.441 150.063ZM359.732 167.324V44.4487H381.528V113.493H382.113L419.122 79.556H445.16L406.98 114.078L448.231 167.324H422.486L391.767 127.39L381.528 135.728V167.324H359.732ZM484.468 167.324C478.714 167.324 474.228 165.861 471.01 162.936C467.889 160.01 466.329 155.573 466.329 149.624V96.5245H450.823V79.556H466.475V53.2255H487.832V79.556H509.043V96.5245H488.125V150.209H511.091V167.324H484.468ZM564.851 169.08C555.392 169.08 547.151 167.227 540.13 163.521C533.206 159.718 527.794 154.403 523.893 147.576C520.089 140.75 518.188 132.705 518.188 123.44C518.188 114.078 520.089 105.984 523.893 99.1576C527.794 92.3311 533.255 87.0651 540.276 83.3593C547.298 79.6535 555.489 77.8006 564.851 77.8006C574.408 77.8006 582.6 79.6535 589.426 83.3593C596.35 87.0651 601.714 92.3311 605.517 99.1576C609.32 105.984 611.222 114.078 611.222 123.44C611.222 132.705 609.32 140.799 605.517 147.723C601.714 154.549 596.35 159.815 589.426 163.521C582.502 167.227 574.311 169.08 564.851 169.08ZM564.851 150.063C572.653 150.063 578.699 147.723 582.99 143.042C587.281 138.263 589.426 131.729 589.426 123.44C589.426 115.053 587.281 108.52 582.99 103.839C578.699 99.1576 572.653 96.8171 564.851 96.8171C556.952 96.8171 550.808 99.1576 546.42 103.839C542.129 108.52 539.984 115.005 539.984 123.294C539.984 131.681 542.129 138.263 546.42 143.042C550.808 147.723 556.952 150.063 564.851 150.063Z" fill="white"/>
<defs>
<linearGradient id="paint0_linear_5706_4193" x1="208.882" y1="-7.18575" x2="108.484" y2="216.281" gradientUnits="userSpaceOnUse">
<stop offset="0.156446" stop-color="#5C34FF"/>
<stop offset="0.78139" stop-color="#00CCB7"/>
</linearGradient>
<radialGradient id="paint1_radial_5706_4193" cx="0" cy="0" r="1" gradientUnits="userSpaceOnUse" gradientTransform="translate(113.755 114.524) rotate(124.95) scale(63.8205 63.8204)">
<stop offset="0.232809"/>
<stop offset="1" stop-opacity="0"/>
</radialGradient>
<clipPath id="clip0_5706_4193">
<rect width="215.91" height="215.91" fill="white" transform="translate(0.528809 0.371094)"/>
</clipPath>
</defs>
</svg>
