<svg width="263" height="263" viewBox="0 0 263 263" fill="none" xmlns="http://www.w3.org/2000/svg">
<g clip-path="url(#clip0_5706_4184)">
<path d="M262.648 131.324C262.648 203.852 203.853 262.648 131.324 262.648C58.7958 262.648 2.73592e-05 203.852 0 131.324C-2.73592e-05 58.796 58.7958 2.73592e-05 131.324 0C203.852 -2.73592e-05 262.648 58.796 262.648 131.324Z" fill="url(#paint0_linear_5706_4184)"/>
<path d="M262.648 131.324C262.648 203.852 203.853 262.648 131.324 262.648C58.7958 262.648 2.73592e-05 203.852 0 131.324C-2.73592e-05 58.796 58.7958 2.73592e-05 131.324 0C203.852 -2.73592e-05 262.648 58.796 262.648 131.324Z" fill="url(#paint1_radial_5706_4184)" fill-opacity="0.15"/>
<path d="M131.324 60.4062C157.74 60.4063 180.782 74.8506 192.984 96.2715C190.691 97.3728 189.108 99.7171 189.108 102.431C189.108 106.202 192.166 109.26 195.937 109.26C196.869 109.26 197.756 109.072 198.565 108.734C200.947 115.829 202.239 123.424 202.239 131.321C202.239 152.752 192.732 171.964 177.706 184.967C160.686 199.183 143.696 200.517 139.923 200.688C136.15 200.858 135.014 200.264 134.689 198.704C134.257 196.628 136.886 195.417 140.745 193.772C152.012 188.971 155.319 186.985 157.572 184.967C160.148 182.659 160.221 181.464 160.221 179.836C160.221 178.208 159.4 176.054 156.928 174.793C155.041 173.83 152.826 174.372 152.011 174.793C138.274 181.201 110.137 194.325 107.489 195.55C104.841 196.775 102.08 195.999 101.03 195.458C99.7 194.845 96.5229 192.668 96.7205 188.074C96.8785 184.399 99.5848 182.273 100.919 181.669C108.482 178.147 124.028 170.909 125.704 170.127C127.796 169.151 128.646 166.894 128.773 165.359C128.9 163.825 128.176 161.339 125.666 160.021C123.657 158.966 121.624 159.462 120.858 159.842C109.172 165.294 85.5029 176.333 84.3074 176.878C82.8159 177.558 80.9055 177.833 78.6814 177.113C76.902 176.538 75.5492 175.157 75.0955 174.539C74.4881 173.761 72.7539 171.055 73.866 167.549C74.7557 164.744 77.0546 163.24 78.0925 162.839C82.9292 160.584 93.0313 155.876 94.7478 155.08C96.8934 154.086 97.7434 152.001 97.8933 150.422C98.0431 148.843 97.3033 146.194 94.7849 144.905C92.7703 143.874 90.6983 144.398 89.9138 144.788C86.4879 146.385 78.9981 149.876 76.447 151.066L76.4314 151.073C73.2455 152.56 69.3532 154.376 65.9148 152.264C63.1598 150.571 61.6927 145.126 61.3035 142.615C60.7149 138.937 60.4089 135.165 60.4089 131.321C60.4089 92.156 92.1587 60.4062 131.324 60.4062ZM150.758 98.2324C146.986 98.2325 143.928 101.29 143.928 105.062C143.929 108.833 146.986 111.891 150.758 111.891C154.529 111.891 157.587 108.833 157.587 105.062C157.587 101.29 154.529 98.2324 150.758 98.2324Z" fill="white"/>
</g>
<defs>
<linearGradient id="paint0_linear_5706_4184" x1="253.456" y1="-9.19269" x2="131.324" y2="262.648" gradientUnits="userSpaceOnUse">
<stop offset="0.156446" stop-color="#5C34FF"/>
<stop offset="0.78139" stop-color="#00CCB7"/>
</linearGradient>
<radialGradient id="paint1_radial_5706_4184" cx="0" cy="0" r="1" gradientUnits="userSpaceOnUse" gradientTransform="translate(137.736 138.864) rotate(124.95) scale(77.6358 77.6358)">
<stop offset="0.232809"/>
<stop offset="1" stop-opacity="0"/>
</radialGradient>
<clipPath id="clip0_5706_4184">
<rect width="262.648" height="262.648" fill="white"/>
</clipPath>
</defs>
</svg>
