<svg width="116" height="116" viewBox="0 0 116 116" fill="none" xmlns="http://www.w3.org/2000/svg">
<rect width="116" height="116" rx="30" fill="white"/>
<g clip-path="url(#clip0_1172_17178)">
<path d="M108 57.9999C108 85.6141 85.6143 108 57.9999 108C30.3858 108 8.00001 85.6141 8 57.9999C7.99999 30.3858 30.3858 8.00001 57.9999 8C85.614 7.99999 108 30.3858 108 57.9999Z" fill="url(#paint0_linear_1172_17178)"/>
<path fill-rule="evenodd" clip-rule="evenodd" d="M58 31C43.0883 31 31 43.0883 31 58C31 59.4634 31.1164 60.8997 31.3405 62.3C31.4887 63.256 32.0473 65.329 33.0963 65.9736C34.4055 66.778 35.8874 66.0865 37.1004 65.5204L37.1062 65.5177C38.0775 65.0644 40.9291 63.7352 42.2334 63.1272C42.5321 62.9786 43.3211 62.7793 44.0882 63.172C45.0471 63.6629 45.3287 64.6712 45.2716 65.2725C45.2145 65.8737 44.891 66.6675 44.0741 67.0461C43.4205 67.349 39.5742 69.1416 37.7327 70.0001C37.3375 70.1528 36.4625 70.7254 36.1237 71.7934C35.7003 73.1284 36.3605 74.1587 36.5918 74.4548C36.7645 74.6901 37.2794 75.2156 37.9569 75.4348C38.8037 75.7088 39.531 75.6042 40.0989 75.3451C40.5532 75.1379 49.5659 70.9345 54.0154 68.8588C54.3069 68.7142 55.0812 68.5254 55.8459 68.9271C56.8018 69.4292 57.0769 70.3754 57.0287 70.9595C56.9804 71.5437 56.6569 72.403 55.8604 72.7747C55.2231 73.0721 49.3038 75.8283 46.4238 77.1693C45.9159 77.3992 44.8853 78.2087 44.8251 79.608C44.7498 81.3572 45.9596 82.1863 46.466 82.4195C46.8657 82.6254 47.9171 82.9207 48.9252 82.4543C49.9333 81.9879 60.6462 76.9915 65.8766 74.5516C66.1868 74.3915 67.0298 74.1848 67.7484 74.5516C68.6897 75.0319 69.0023 75.8515 69.0023 76.4715C69.0023 77.0914 68.9742 77.5462 67.9934 78.4248C67.1355 79.1934 65.8766 79.9496 61.5869 81.7777C60.1177 82.4038 59.1165 82.8647 59.2812 83.6552C59.405 84.2492 59.8374 84.4752 61.2739 84.4102C62.7105 84.3452 69.1791 83.8375 75.6593 78.4248C81.3804 73.4739 85 66.1597 85 58C85 54.9933 84.5085 52.1013 83.6015 49.4001C83.2933 49.5289 82.9549 49.6 82.6 49.6C81.1641 49.6 80 48.4359 80 47C80 45.9664 80.6031 45.0737 81.4766 44.6546C76.8306 36.4991 68.0575 31 58 31ZM68 48C68 49.4359 66.8359 50.6 65.4 50.6C63.9641 50.6 62.8 49.4359 62.8 48C62.8 46.5641 63.9641 45.4 65.4 45.4C66.8359 45.4 68 46.5641 68 48Z" fill="white"/>
</g>
<defs>
<linearGradient id="paint0_linear_1172_17178" x1="57.9999" y1="8" x2="57.9999" y2="108" gradientUnits="userSpaceOnUse">
<stop stop-color="#6246F5"/>
<stop offset="0.493007" stop-color="#5166EE"/>
<stop offset="1" stop-color="#56B9F9"/>
</linearGradient>
<clipPath id="clip0_1172_17178">
<rect width="100" height="100" fill="white" transform="translate(8 8)"/>
</clipPath>
</defs>
</svg>
