<svg width="100" height="100" viewBox="0 0 100 100" fill="none" xmlns="http://www.w3.org/2000/svg">
<g clip-path="url(#clip0_1101_18051)">
<path fill-rule="evenodd" clip-rule="evenodd" d="M49.9999 99.9999C77.6143 99.9999 99.9998 77.6141 99.9998 49.9999C99.9998 22.3858 77.614 -1.04166e-05 49.9999 0C22.3858 1.04167e-05 -1.04166e-05 22.3858 0 49.9999C1.04167e-05 77.6141 22.3858 99.9999 49.9999 99.9999ZM23 50C23 35.0883 35.0883 23 50 23C60.0575 23 68.8306 28.4991 73.4766 36.6546C72.6031 37.0737 72 37.9664 72 39C72 40.4359 73.1641 41.6 74.6 41.6C74.9549 41.6 75.2933 41.5289 75.6015 41.4001C76.5085 44.1013 77 46.9933 77 50C77 58.1597 73.3804 65.4739 67.6593 70.4248C61.1791 75.8375 54.7105 76.3452 53.2739 76.4102C51.8374 76.4752 51.405 76.2492 51.2812 75.6552C51.1165 74.8647 52.1177 74.4038 53.5869 73.7777C57.8766 71.9496 59.1355 71.1934 59.9934 70.4248C60.9742 69.5462 61.0023 69.0914 61.0023 68.4715C61.0023 67.8515 60.6897 67.0319 59.7484 66.5516C59.0298 66.1848 58.1868 66.3915 57.8766 66.5516C52.6462 68.9915 41.9333 73.9879 40.9252 74.4543C39.9171 74.9207 38.8657 74.6254 38.466 74.4194C37.9596 74.1863 36.7498 73.3572 36.8251 71.608C36.8853 70.2087 37.9159 69.3992 38.4238 69.1693C41.3038 67.8283 47.2231 65.0721 47.8604 64.7747C48.6569 64.403 48.9804 63.5437 49.0287 62.9595C49.0769 62.3754 48.8018 61.4292 47.8459 60.9271C47.0812 60.5254 46.3069 60.7142 46.0154 60.8588C41.5658 62.9345 32.5532 67.1379 32.0989 67.3451C31.531 67.6042 30.8037 67.7088 29.9569 67.4348C29.2794 67.2156 28.7645 66.6901 28.5918 66.4548C28.3605 66.1587 27.7003 65.1284 28.1237 63.7934C28.4625 62.7254 29.3375 62.1528 29.7327 62.0001C31.5742 61.1416 35.4205 59.349 36.0741 59.0461C36.891 58.6675 37.2145 57.8737 37.2716 57.2725C37.3287 56.6712 37.0471 55.6629 36.0882 55.172C35.3211 54.7793 34.5321 54.9786 34.2334 55.1272C32.9291 55.7352 30.0775 57.0644 29.1062 57.5177L29.1004 57.5204C27.8874 58.0865 26.4055 58.778 25.0963 57.9736C24.0473 57.329 23.4887 55.256 23.3405 54.3C23.1164 52.8997 23 51.4634 23 50ZM57.4 42.6C58.8359 42.6 60 41.4359 60 40C60 38.5641 58.8359 37.4 57.4 37.4C55.9641 37.4 54.8 38.5641 54.8 40C54.8 41.4359 55.9641 42.6 57.4 42.6Z" fill="white"/>
</g>
<defs>
<clipPath id="clip0_1101_18051">
<rect width="100" height="100" fill="white"/>
</clipPath>
</defs>
</svg>
