<?xml version="1.0" encoding="utf-8"?>
<!-- Generator: Adobe Illustrator 27.8.0, SVG Export Plug-In . SVG Version: 6.00 Build 0)  -->
<svg version="1.1" id="Layer_1" xmlns="http://www.w3.org/2000/svg" xmlns:xlink="http://www.w3.org/1999/xlink" x="0px" y="0px"
	 viewBox="0 0 239 101" style="enable-background:new 0 0 239 101;" xml:space="preserve">
<style type="text/css">
	.st0{fill:#707070;}
	.st1{fill:#182954;}
	.st2{fill:#FA4A29;}
	.st3{clip-path:url(#SVGID_00000049201489369231611230000011349018916930280082_);}
	.st4{fill:url(#SVGID_00000140718232623714343810000015864674903035718535_);}
	.st5{fill-rule:evenodd;clip-rule:evenodd;fill:#FFFFFF;}
</style>
<g>
	<path class="st0" d="M134.6,96.8V84.3h4.8c0.9,0,1.6,0.1,2.2,0.4c0.6,0.3,1,0.7,1.3,1.1c0.3,0.5,0.4,1,0.4,1.7
		c0,0.5-0.1,0.9-0.3,1.3c-0.2,0.4-0.5,0.6-0.8,0.9c-0.3,0.2-0.7,0.4-1.1,0.5v0.1c0.4,0,0.9,0.2,1.3,0.4c0.4,0.2,0.7,0.6,1,1
		c0.3,0.4,0.4,1,0.4,1.6c0,0.6-0.2,1.2-0.5,1.7c-0.3,0.5-0.8,0.9-1.4,1.2c-0.6,0.3-1.4,0.4-2.4,0.4H134.6z M136.8,94.9h2.4
		c0.8,0,1.4-0.2,1.8-0.5c0.4-0.3,0.5-0.7,0.5-1.2c0-0.4-0.1-0.7-0.3-1c-0.2-0.3-0.4-0.5-0.8-0.7c-0.3-0.2-0.7-0.3-1.2-0.3h-2.5V94.9
		z M136.8,89.6h2.2c0.4,0,0.7-0.1,1-0.2c0.3-0.1,0.6-0.3,0.7-0.6c0.2-0.3,0.3-0.6,0.3-0.9c0-0.5-0.2-0.9-0.5-1.2
		c-0.3-0.3-0.8-0.5-1.5-0.5h-2.3V89.6z M147.1,100.2c-0.3,0-0.6,0-0.8-0.1c-0.3,0-0.5-0.1-0.6-0.2l0.5-1.7c0.3,0.1,0.6,0.1,0.9,0.1
		c0.2,0,0.5-0.1,0.7-0.2c0.2-0.1,0.4-0.4,0.5-0.8l0.2-0.5l-3.4-9.5h2.3l2.1,7h0.1l2.2-7h2.3l-3.7,10.4c-0.2,0.5-0.4,0.9-0.7,1.3
		c-0.3,0.4-0.6,0.6-1.1,0.8C148.1,100.2,147.6,100.2,147.1,100.2z"/>
	<path class="st1" d="M174.7,93.7l1.9,1.6c-0.4,0.5-0.8,1-1.3,1.3c-0.6,0.5-1.3,0.9-2,1.2c-0.8,0.3-1.7,0.5-2.6,0.5
		c-1.3,0-2.6-0.3-3.8-1c-1.1-0.6-2-1.5-2.6-2.6c-0.6-1.2-1-2.5-0.9-3.8c0-1,0.2-2,0.5-2.9c0.4-0.9,0.9-1.7,1.5-2.4
		c0.7-0.7,1.4-1.2,2.3-1.6c0.9-0.4,2-0.6,3-0.6c1.2,0,2.5,0.2,3.5,0.8c0.9,0.5,1.7,1.2,2.3,2.1l-1.9,1.7c-0.4-0.6-1-1.2-1.6-1.6
		c-0.7-0.4-1.5-0.6-2.3-0.6c-0.9,0-1.7,0.2-2.4,0.7c-0.7,0.5-1.2,1.1-1.6,1.9c-0.4,0.8-0.6,1.7-0.6,2.5c0,0.9,0.2,1.7,0.6,2.5
		c0.3,0.7,0.9,1.3,1.5,1.8c0.7,0.4,1.5,0.7,2.3,0.7c0.7,0,1.4-0.1,2-0.4c0.5-0.2,0.9-0.5,1.2-0.8L174.7,93.7"/>
	<path class="st1" d="M177.3,92.9c0-0.9,0.2-1.9,0.7-2.7c0.5-0.8,1.1-1.5,1.9-1.9c0.9-0.5,1.8-0.7,2.8-0.7c1,0,2,0.2,2.8,0.7
		c0.8,0.5,1.5,1.1,1.9,1.9c0.4,0.8,0.7,1.7,0.7,2.7c0,0.9-0.2,1.8-0.7,2.7c-0.5,0.8-1.2,1.5-2,2c-0.8,0.5-1.8,0.7-2.7,0.7
		c-1,0-1.9-0.2-2.7-0.7c-0.8-0.5-1.5-1.2-2-2C177.5,94.7,177.3,93.8,177.3,92.9L177.3,92.9z M182.7,96.1c0.6,0,1.1-0.1,1.6-0.5
		c0.4-0.3,0.8-0.7,1-1.2c0.2-0.5,0.3-1,0.3-1.5c0-0.5-0.1-1-0.3-1.5c-0.2-0.5-0.5-0.9-1-1.2c-0.5-0.3-1-0.5-1.6-0.5
		c-0.6,0-1.1,0.2-1.6,0.5c-0.4,0.3-0.7,0.7-0.9,1.2c-0.2,0.5-0.3,1-0.3,1.5c0,0.5,0.1,1,0.3,1.5c0.2,0.5,0.5,0.9,1,1.2
		C181.6,95.9,182.2,96.1,182.7,96.1"/>
	<path class="st1" d="M188.7,83.6h2.5v2.7h-2.5V83.6z M188.7,87.9h2.5v10.1h-2.5V87.9z"/>
	<path class="st1" d="M192.3,97.9v-10h2.4l0.1,1.1c0.3-0.3,0.7-0.6,1.1-0.9c0.6-0.3,1.2-0.5,1.9-0.5c0.5,0,1.1,0,1.6,0.2
		c0.5,0.2,0.9,0.5,1.3,0.9c0.7,0.8,1.1,1.9,1,3v6.1h-2.6v-6.1c0-0.3,0-0.5-0.1-0.8c-0.1-0.3-0.2-0.5-0.4-0.7
		c-0.2-0.2-0.4-0.3-0.6-0.4c-0.2-0.1-0.5-0.1-0.7-0.1c-0.3,0-0.7,0.1-1,0.2c-0.3,0.1-0.6,0.3-0.8,0.6c-0.5,0.5-0.7,1.2-0.7,1.9v5.4
		L192.3,97.9z"/>
	<path class="st2" d="M233,90.2l4.5-6.6h-4.2l-2.3,3.7l-2.4-3.7h-4.7l0.2,0.3l-0.2-0.1c-1.1-0.4-2.3-0.6-3.5-0.6
		c-1.4,0-2.7,0.3-3.9,1c-0.8,0.5-1.6,1.2-2.2,1.9c-0.6-0.8-1.4-1.4-2.3-1.8c-1.3-0.5-2.6-0.8-4-0.8h-5.5v14.3h5.5
		c1.4,0,2.7-0.2,4-0.8c0.9-0.4,1.7-1,2.3-1.8c0.6,0.8,1.3,1.5,2.2,1.9c1.2,0.7,2.5,1,3.9,1c1.3,0,2.6-0.3,3.7-0.8l-0.3,0.4h4.2
		l2.8-4.4l2.9,4.4h4.8L233,90.2z M210.8,93.5c-0.4,0.4-0.8,0.6-1.3,0.8c-0.5,0.2-1,0.3-1.6,0.2h-1.6v-7.6h1.6c0.5,0,1.1,0,1.6,0.2
		c0.5,0.2,1,0.5,1.4,0.9c0.7,0.8,1,1.7,1,2.8c0,0.5-0.1,1-0.2,1.5C211.5,92.7,211.2,93.1,210.8,93.5L210.8,93.5z M226.1,94.5
		l-1.8-1.7c-0.4,0.5-0.9,1-1.5,1.4c-0.6,0.3-1.3,0.5-2,0.4c-0.7,0-1.4-0.2-2-0.5c-0.6-0.3-1-0.8-1.3-1.4c-0.3-0.6-0.5-1.3-0.5-2.1
		c0-0.7,0.1-1.4,0.4-2c0.3-0.6,0.7-1.1,1.3-1.4c0.6-0.4,1.3-0.6,2.1-0.5c0.7,0,1.3,0.2,1.9,0.5c0.6,0.3,1.1,0.8,1.5,1.3l1.9-1.9
		l2.8,4L226.1,94.5z"/>
	<g>
		<g>
			<defs>
				<rect id="SVGID_1_" x="0.2" y="7.9" width="83.1" height="83.1"/>
			</defs>
			<clipPath id="SVGID_00000006696980161741967040000014176795499018631317_">
				<use xlink:href="#SVGID_1_"  style="overflow:visible;"/>
			</clipPath>
			<g style="clip-path:url(#SVGID_00000006696980161741967040000014176795499018631317_);">
				
					<linearGradient id="SVGID_00000118398001669047364250000000384559036334662563_" gradientUnits="userSpaceOnUse" x1="41.7746" y1="94.1499" x2="41.7746" y2="11.0921" gradientTransform="matrix(1 0 0 -1 0 102)">
					<stop  offset="0" style="stop-color:#6246F5"/>
					<stop  offset="0.493" style="stop-color:#5166EE"/>
					<stop  offset="1" style="stop-color:#56B9F9"/>
				</linearGradient>
				<path style="fill:url(#SVGID_00000118398001669047364250000000384559036334662563_);" d="M83.3,49.4c0,22.9-18.6,41.5-41.5,41.5
					c-22.9,0-41.5-18.6-41.5-41.5c0-22.9,18.6-41.5,41.5-41.5C64.7,7.9,83.3,26.4,83.3,49.4z"/>
				<path class="st5" d="M41.8,27c-12.4,0-22.4,10-22.4,22.4c0,1.2,0.1,2.4,0.3,3.6c0.1,0.8,0.6,2.5,1.5,3.1
					c1.1,0.7,2.3,0.1,3.3-0.4l0,0c0.8-0.4,3.2-1.5,4.3-2c0.2-0.1,0.9-0.3,1.5,0c0.8,0.4,1,1.2,1,1.7c0,0.5-0.3,1.2-1,1.5
					c-0.5,0.3-3.7,1.7-5.3,2.5c-0.3,0.1-1.1,0.6-1.3,1.5c-0.4,1.1,0.2,2,0.4,2.2c0.1,0.2,0.6,0.6,1.1,0.8c0.7,0.2,1.3,0.1,1.8-0.1
					c0.4-0.2,7.9-3.7,11.6-5.4c0.2-0.1,0.9-0.3,1.5,0.1c0.8,0.4,1,1.2,1,1.7c0,0.5-0.3,1.2-1,1.5c-0.5,0.2-5.4,2.5-7.8,3.7
					c-0.4,0.2-1.3,0.9-1.3,2c-0.1,1.5,0.9,2.1,1.4,2.3c0.3,0.2,1.2,0.4,2,0c0.8-0.4,9.7-4.5,14.1-6.6c0.3-0.1,1-0.3,1.6,0
					c0.8,0.4,1,1.1,1,1.6c0,0.5,0,0.9-0.8,1.6c-0.7,0.6-1.8,1.3-5.3,2.8c-1.2,0.5-2.1,0.9-1.9,1.6c0.1,0.5,0.5,0.7,1.7,0.6
					c1.2-0.1,6.6-0.5,11.9-5c4.8-4.1,7.8-10.2,7.8-17c0-2.5-0.4-4.9-1.2-7.1c-0.3,0.1-0.5,0.2-0.8,0.2c-1.2,0-2.2-1-2.2-2.2
					c0-0.9,0.5-1.6,1.2-1.9C57.4,31.5,50.1,27,41.8,27z M50.1,41.1c0,1.2-1,2.2-2.2,2.2c-1.2,0-2.2-1-2.2-2.2c0-1.2,1-2.2,2.2-2.2
					C49.1,38.9,50.1,39.9,50.1,41.1z"/>
			</g>
		</g>
		<path d="M116,72.7c-3.6,0-6.8-0.7-9.5-2.1c-2.7-1.5-4.8-3.5-6.3-6.1c-1.5-2.6-2.2-5.7-2.2-9.3c0-3.6,0.7-6.7,2.2-9.4
			c1.5-2.6,3.6-4.7,6.3-6.1c2.7-1.4,5.9-2.1,9.5-2.1c3.7,0,6.8,0.7,9.5,2.1c2.7,1.4,4.7,3.5,6.2,6.1c1.5,2.6,2.2,5.7,2.2,9.4
			c0,3.6-0.7,6.7-2.2,9.4c-1.5,2.6-3.5,4.7-6.2,6.1C122.8,72,119.6,72.7,116,72.7z M116,65.4c3,0,5.3-0.9,7-2.7
			c1.7-1.8,2.5-4.4,2.5-7.6c0-3.2-0.8-5.7-2.5-7.6c-1.7-1.8-4-2.7-7-2.7c-3,0-5.4,0.9-7.1,2.7c-1.7,1.8-2.5,4.3-2.5,7.5
			c0,3.2,0.8,5.8,2.5,7.6C110.6,64.4,112.9,65.4,116,65.4z"/>
		<path d="M139.2,72V24.7h8.4v26.6h0.2l14.3-13.1h10l-14.7,13.3L173.3,72h-9.9l-11.8-15.4l-3.9,3.2V72H139.2z"/>
		<path d="M187.3,72c-2.2,0-3.9-0.6-5.2-1.7c-1.2-1.1-1.8-2.8-1.8-5.1V44.7h-6v-6.5h6V28h8.2v10.1h8.2v6.5h-8.1v20.7h8.8V72H187.3z"
			/>
		<path d="M218.2,72.7c-3.6,0-6.8-0.7-9.5-2.1c-2.7-1.5-4.8-3.5-6.3-6.1c-1.5-2.6-2.2-5.7-2.2-9.3c0-3.6,0.7-6.7,2.2-9.4
			c1.5-2.6,3.6-4.7,6.3-6.1c2.7-1.4,5.9-2.1,9.5-2.1c3.7,0,6.8,0.7,9.5,2.1c2.7,1.4,4.7,3.5,6.2,6.1c1.5,2.6,2.2,5.7,2.2,9.4
			c0,3.6-0.7,6.7-2.2,9.4c-1.5,2.6-3.5,4.7-6.2,6.1C225.1,72,221.9,72.7,218.2,72.7z M218.2,65.4c3,0,5.3-0.9,7-2.7
			c1.7-1.8,2.5-4.4,2.5-7.6c0-3.2-0.8-5.7-2.5-7.6c-1.7-1.8-4-2.7-7-2.7c-3,0-5.4,0.9-7.1,2.7c-1.7,1.8-2.5,4.3-2.5,7.5
			c0,3.2,0.8,5.8,2.5,7.6C212.8,64.4,215.2,65.4,218.2,65.4z"/>
	</g>
</g>
</svg>
