<svg width="239" height="101" viewBox="0 0 239 101" fill="none" xmlns="http://www.w3.org/2000/svg">
<g clip-path="url(#clip0_1538_323)">
<path d="M81.9999 50.2387C81.9999 72.8823 63.6437 91.2387 40.9999 91.2387C18.3563 91.2387 8.54166e-06 72.8823 0 50.2387C-8.54166e-06 27.5951 18.3563 9.23878 40.9999 9.23877C63.6435 9.23876 81.9999 27.5951 81.9999 50.2387Z" fill="url(#paint0_linear_1538_323)"/>
<path fill-rule="evenodd" clip-rule="evenodd" d="M40.9999 28.0989C28.7723 28.0989 18.8599 38.0113 18.8599 50.2389C18.8599 51.4389 18.9553 52.6166 19.1391 53.7649C19.2606 54.5488 19.7187 56.2487 20.5788 56.7772C21.6523 57.4369 22.8675 56.8698 23.8622 56.4056L23.867 56.4034C24.6634 56.0317 27.0017 54.9417 28.0713 54.4432C28.3162 54.3213 28.9631 54.1579 29.5922 54.4799C30.3785 54.8824 30.6094 55.7093 30.5626 56.2023C30.5158 56.6953 30.2505 57.3462 29.5806 57.6567C29.0447 57.905 25.8907 59.375 24.3807 60.0789C24.0567 60.2042 23.3391 60.6737 23.0613 61.5494C22.7141 62.6442 23.2555 63.489 23.4451 63.7318C23.5868 63.9248 24.009 64.3557 24.5645 64.5354C25.2589 64.7601 25.8553 64.6743 26.321 64.4619C26.6935 64.292 34.0839 60.8452 37.7325 59.1431C37.9715 59.0245 38.6064 58.8697 39.2335 59.1991C40.0173 59.6108 40.243 60.3867 40.2034 60.8657C40.1638 61.3447 39.8986 62.0493 39.2454 62.3542C38.7228 62.598 33.869 64.8581 31.5073 65.9577C31.0909 66.1462 30.2458 66.81 30.1964 67.9575C30.1347 69.3918 31.1268 70.0716 31.542 70.2628C31.8697 70.4317 32.7319 70.6739 33.5585 70.2914C34.3852 69.9089 43.1697 65.8119 47.4586 63.8112C47.713 63.6799 48.4043 63.5105 48.9936 63.8112C49.7654 64.205 50.0218 64.8771 50.0218 65.3855C50.0218 65.8939 49.9987 66.2667 49.1945 66.9872C48.491 67.6174 47.4586 68.2375 43.9411 69.7366C42.7364 70.25 41.9154 70.6279 42.0504 71.2761C42.1519 71.7632 42.5065 71.9486 43.6845 71.8953C44.8625 71.8419 50.1667 71.4257 55.4805 66.9872C60.1718 62.9275 63.1399 56.9298 63.1399 50.2389C63.1399 47.7733 62.7369 45.4019 61.9931 43.187C61.7403 43.2926 61.4629 43.3509 61.1719 43.3509C59.9944 43.3509 59.0399 42.3963 59.0399 41.2189C59.0399 40.3713 59.5344 39.6393 60.2507 39.2956C56.4409 32.6081 49.247 28.0989 40.9999 28.0989ZM49.1999 42.0389C49.1999 43.2163 48.2453 44.1709 47.0679 44.1709C45.8904 44.1709 44.9359 43.2163 44.9359 42.0389C44.9359 40.8614 45.8904 39.9069 47.0679 39.9069C48.2453 39.9069 49.1999 40.8614 49.1999 42.0389Z" fill="white"/>
</g>
<path d="M115.061 73.8388C111.594 73.8388 108.461 73.061 105.661 71.5054C102.861 69.9054 100.661 67.6832 99.0609 64.8388C97.4609 61.9499 96.6609 58.6165 96.6609 54.8388C96.6609 51.1054 97.4832 47.7943 99.1276 44.9054C100.772 42.0166 103.016 39.7943 105.861 38.2388C108.705 36.6832 111.883 35.9054 115.394 35.9054C118.905 35.9054 122.083 36.6832 124.928 38.2388C127.772 39.7943 130.016 42.0166 131.661 44.9054C133.305 47.7943 134.128 51.1054 134.128 54.8388C134.128 58.5721 133.283 61.8832 131.594 64.7721C129.905 67.661 127.594 69.9054 124.661 71.5054C121.772 73.061 118.572 73.8388 115.061 73.8388ZM115.061 67.2388C117.016 67.2388 118.839 66.7721 120.528 65.8388C122.261 64.9054 123.661 63.5054 124.728 61.6388C125.794 59.7721 126.328 57.5054 126.328 54.8388C126.328 52.1721 125.816 49.9277 124.794 48.1054C123.772 46.2388 122.416 44.8388 120.728 43.9054C119.039 42.9721 117.216 42.5054 115.261 42.5054C113.305 42.5054 111.483 42.9721 109.794 43.9054C108.15 44.8388 106.839 46.2388 105.861 48.1054C104.883 49.9277 104.394 52.1721 104.394 54.8388C104.394 58.7943 105.394 61.861 107.394 64.0388C109.439 66.1721 111.994 67.2388 115.061 67.2388ZM155.507 54.9054L172.441 73.2388H162.174L148.574 57.4388V73.2388H140.974V23.9054H148.574V52.5721L161.907 36.5054H172.441L155.507 54.9054ZM186.088 42.7054V63.0388C186.088 64.4165 186.399 65.4165 187.021 66.0388C187.688 66.6165 188.799 66.9054 190.355 66.9054H195.021V73.2388H189.021C185.599 73.2388 182.977 72.4388 181.155 70.8388C179.332 69.2388 178.421 66.6388 178.421 63.0388V42.7054H174.088V36.5054H178.421V27.3721H186.088V36.5054H195.021V42.7054H186.088ZM217.293 73.8388C213.826 73.8388 210.693 73.061 207.893 71.5054C205.093 69.9054 202.893 67.6832 201.293 64.8388C199.693 61.9499 198.893 58.6165 198.893 54.8388C198.893 51.1054 199.715 47.7943 201.359 44.9054C203.004 42.0166 205.248 39.7943 208.093 38.2388C210.937 36.6832 214.115 35.9054 217.626 35.9054C221.137 35.9054 224.315 36.6832 227.159 38.2388C230.004 39.7943 232.248 42.0166 233.893 44.9054C235.537 47.7943 236.359 51.1054 236.359 54.8388C236.359 58.5721 235.515 61.8832 233.826 64.7721C232.137 67.661 229.826 69.9054 226.893 71.5054C224.004 73.061 220.804 73.8388 217.293 73.8388ZM217.293 67.2388C219.248 67.2388 221.07 66.7721 222.759 65.8388C224.493 64.9054 225.893 63.5054 226.959 61.6388C228.026 59.7721 228.559 57.5054 228.559 54.8388C228.559 52.1721 228.048 49.9277 227.026 48.1054C226.004 46.2388 224.648 44.8388 222.959 43.9054C221.27 42.9721 219.448 42.5054 217.493 42.5054C215.537 42.5054 213.715 42.9721 212.026 43.9054C210.382 44.8388 209.07 46.2388 208.093 48.1054C207.115 49.9277 206.626 52.1721 206.626 54.8388C206.626 58.7943 207.626 61.861 209.626 64.0388C211.67 66.1721 214.226 67.2388 217.293 67.2388Z" fill="white"/>
<path d="M134.568 96.7544V84.3302H139.324C140.222 84.3302 140.968 84.4717 141.562 84.7548C142.161 85.0339 142.608 85.4161 142.903 85.9014C143.202 86.3867 143.352 86.9367 143.352 87.5515C143.352 88.057 143.255 88.4898 143.061 88.8497C142.867 89.2056 142.606 89.4948 142.278 89.7172C141.951 89.9397 141.585 90.0994 141.18 90.1965V90.3178C141.621 90.3421 142.044 90.4776 142.448 90.7243C142.857 90.9669 143.19 91.3107 143.449 91.7556C143.708 92.2005 143.837 92.7384 143.837 93.3693C143.837 94.0123 143.682 94.5907 143.37 95.1043C143.059 95.6139 142.59 96.0163 141.963 96.3115C141.336 96.6068 140.547 96.7544 139.597 96.7544H134.568ZM136.818 94.8738H139.239C140.056 94.8738 140.644 94.7181 141.004 94.4066C141.368 94.0912 141.55 93.6868 141.55 93.1933C141.55 92.8253 141.459 92.4937 141.277 92.1984C141.095 91.8992 140.836 91.6646 140.501 91.4947C140.165 91.3208 139.765 91.2339 139.3 91.2339H136.818V94.8738ZM136.818 89.6141H139.045C139.433 89.6141 139.783 89.5433 140.094 89.4018C140.406 89.2562 140.65 89.0519 140.828 88.789C141.01 88.5221 141.101 88.2067 141.101 87.8427C141.101 87.3614 140.932 86.965 140.592 86.6536C140.256 86.3422 139.757 86.1865 139.093 86.1865H136.818V89.6141ZM147.063 100.249C146.764 100.249 146.487 100.224 146.232 100.176C145.981 100.131 145.781 100.079 145.632 100.018L146.141 98.3074C146.461 98.4004 146.746 98.4449 146.997 98.4409C147.247 98.4368 147.468 98.358 147.658 98.2043C147.852 98.0547 148.016 97.8039 148.149 97.452L148.337 96.9485L144.958 87.4362H147.288L149.435 94.4734H149.532L151.686 87.4362H154.022L150.291 97.8828C150.117 98.3762 149.886 98.7988 149.599 99.1507C149.312 99.5066 148.96 99.7775 148.543 99.9636C148.131 100.154 147.638 100.249 147.063 100.249Z" fill="white" fill-opacity="0.7"/>
<path d="M174.671 93.6748L176.57 95.3034C176.206 95.8108 175.767 96.2605 175.268 96.6369C174.647 97.1232 173.956 97.5156 173.219 97.8014C172.404 98.1178 171.535 98.276 170.659 98.2674C169.327 98.2906 168.015 97.9539 166.861 97.2934C165.774 96.6605 164.881 95.7455 164.279 94.6469C163.641 93.4785 163.319 92.1663 163.344 90.8378C163.335 89.8396 163.515 88.8487 163.874 87.9164C164.225 87.0209 164.746 86.2013 165.411 85.5029C166.066 84.8081 166.858 84.2539 167.737 83.8743C168.687 83.471 169.711 83.269 170.745 83.2811C171.979 83.2355 173.202 83.5207 174.286 84.1067C175.184 84.6247 175.962 85.3243 176.569 86.16L174.649 87.8537C174.223 87.2278 173.68 86.6887 173.049 86.2658C172.357 85.8464 171.555 85.6401 170.745 85.6733C169.88 85.6481 169.03 85.8921 168.312 86.3711C167.625 86.8466 167.08 87.4976 166.734 88.2552C166.361 89.0512 166.171 89.9198 166.179 90.7978C166.169 91.6547 166.359 92.5023 166.734 93.2745C167.077 93.9913 167.606 94.6045 168.268 95.0509C168.958 95.4982 169.769 95.7271 170.593 95.7074C171.287 95.737 171.98 95.614 172.62 95.3472C173.081 95.1414 173.5 94.8545 173.858 94.5003L174.668 93.6748" fill="white"/>
<path d="M177.317 92.8701C177.308 91.9371 177.543 91.0177 178 90.2023C178.456 89.3962 179.118 88.7242 179.921 88.2549C180.791 87.7827 181.766 87.5352 182.758 87.5352C183.75 87.5352 184.726 87.7827 185.596 88.2549C186.398 88.7242 187.061 89.3962 187.516 90.2023C187.964 91.0211 188.199 91.9381 188.199 92.8698C188.199 93.8015 187.964 94.7185 187.516 95.5373C187.03 96.3603 186.337 97.0433 185.503 97.5185C184.67 97.9938 183.726 98.2449 182.764 98.2471C181.803 98.2492 180.858 98.0023 180.022 97.5308C179.187 97.0593 178.49 96.3794 178 95.5586C177.543 94.7433 177.308 93.8242 177.317 92.8914V92.8701ZM182.737 96.0672C183.31 96.0891 183.874 95.9175 184.337 95.5805C184.759 95.2611 185.09 94.8379 185.297 94.3528C185.501 93.8919 185.61 93.3953 185.617 92.892C185.612 92.3885 185.503 91.8914 185.297 91.4313C185.089 90.9466 184.759 90.5236 184.337 90.2036C183.865 89.8862 183.307 89.7166 182.737 89.7166C182.166 89.7166 181.609 89.8862 181.136 90.2036C180.725 90.5197 180.402 90.935 180.198 91.41C179.992 91.8701 179.883 92.3672 179.878 92.8707C179.881 93.3812 179.99 93.8855 180.198 94.3528C180.404 94.8384 180.735 95.2618 181.158 95.5805C181.621 95.9175 182.185 96.0891 182.758 96.0672" fill="white"/>
<path d="M188.71 83.6187H191.249V86.2864H188.71V83.6187ZM188.71 87.853H191.249V97.9091H188.71V87.853Z" fill="white"/>
<path d="M192.252 97.9091V87.8743H194.684L194.747 89.0175C195.083 88.6723 195.463 88.3732 195.878 88.128C196.461 87.7949 197.127 87.6333 197.798 87.662C198.332 87.628 198.867 87.7109 199.365 87.9047C199.862 88.0986 200.311 88.3987 200.679 88.7838C201.383 89.633 201.741 90.7131 201.682 91.8112V97.9084H199.122V91.8325C199.138 91.5625 199.099 91.2922 199.007 91.0375C198.915 90.7829 198.773 90.5492 198.588 90.3504C198.409 90.1738 198.196 90.0357 197.961 89.9446C197.726 89.8536 197.475 89.8115 197.223 89.8211C196.893 89.8124 196.564 89.8762 196.262 90.008C195.96 90.1398 195.69 90.3363 195.473 90.5835C195.014 91.1031 194.769 91.7764 194.79 92.4676V97.9084L192.252 97.9091Z" fill="white"/>
<path d="M233.048 90.245L237.53 83.6159H233.284L230.958 87.321L228.566 83.6159H223.871L224.085 83.9122L223.935 83.8496C222.825 83.432 221.645 83.2252 220.458 83.2401C219.09 83.2147 217.74 83.5588 216.554 84.2354C215.706 84.7283 214.972 85.3916 214.398 86.1828C213.775 85.4077 212.969 84.7969 212.051 84.4045C210.797 83.8767 209.445 83.6162 208.083 83.6397H202.557V97.9088H208.061C209.425 97.931 210.778 97.6638 212.03 97.1252C212.941 96.7323 213.746 96.1301 214.377 95.3682C214.96 96.1665 215.709 96.8307 216.574 97.3157C217.762 97.967 219.101 98.2957 220.457 98.2684C221.741 98.2911 223.013 98.0157 224.17 97.4641L223.871 97.9088H228.053L230.848 93.5241L233.729 97.9088H238.508L233.048 90.245ZM210.837 93.5022C210.452 93.867 209.995 94.1493 209.496 94.3314C208.996 94.5135 208.464 94.5916 207.933 94.5608H206.376V86.9427H207.933C208.479 86.8968 209.027 86.9676 209.543 87.1502C210.058 87.3328 210.528 87.623 210.921 88.0013C211.582 88.7642 211.925 89.7484 211.881 90.7536C211.902 91.2585 211.82 91.7624 211.64 92.2353C211.461 92.7081 211.187 93.1403 210.835 93.506L210.837 93.5022ZM226.133 94.5433L224.32 92.852C223.895 93.3987 223.374 93.8654 222.784 94.2301C222.152 94.554 221.445 94.7074 220.735 94.6748C220.032 94.6919 219.338 94.5161 218.73 94.1668C218.16 93.8301 217.699 93.3378 217.404 92.7487C217.085 92.1111 216.924 91.4071 216.934 90.6954C216.921 89.9991 217.074 89.3096 217.382 88.684C217.674 88.1 218.125 87.6088 218.684 87.2659C219.31 86.8988 220.027 86.7152 220.753 86.7366C221.426 86.7231 222.09 86.8914 222.674 87.2233C223.243 87.5587 223.738 88.0063 224.126 88.5387L226.025 86.6545L228.799 90.6133L226.133 94.5433Z" fill="white"/>
<defs>
<linearGradient id="paint0_linear_1538_323" x1="40.9999" y1="9.23877" x2="40.9999" y2="91.2387" gradientUnits="userSpaceOnUse">
<stop stop-color="#6246F5"/>
<stop offset="0.493007" stop-color="#5166EE"/>
<stop offset="1" stop-color="#56B9F9"/>
</linearGradient>
<clipPath id="clip0_1538_323">
<rect width="82" height="82" fill="white" transform="translate(0 9)"/>
</clipPath>
</defs>
</svg>
