<?xml version="1.0" encoding="utf-8"?>
<!-- Generator: Adobe Illustrator 27.8.0, SVG Export Plug-In . SVG Version: 6.00 Build 0)  -->
<svg version="1.1" id="Layer_1" xmlns="http://www.w3.org/2000/svg" xmlns:xlink="http://www.w3.org/1999/xlink" x="0px" y="0px"
	 viewBox="0 0 138 48" style="enable-background:new 0 0 138 48;" xml:space="preserve">
<style type="text/css">
	.st0{fill:#FFFFFF;}
</style>
<g>
	<g>
		<path class="st0" d="M29.3,18.1c-0.7,0-1.2,0.5-1.2,1.2c0,0.7,0.5,1.2,1.2,1.2c0.7,0,1.2-0.5,1.2-1.2C30.5,18.6,30,18.1,29.3,18.1
			z"/>
		<path class="st0" d="M49.3,24c0-13-10.5-23.4-23.4-23.4S2.4,11,2.4,24s10.5,23.4,23.4,23.4C38.8,47.4,49.3,37,49.3,24z M34.1,33.6
			c-3,2.5-6.1,2.8-6.7,2.8c-0.7,0-0.9-0.1-0.9-0.4c-0.1-0.4,0.4-0.6,1.1-0.9c2-0.9,2.6-1.2,3-1.6C31,33.2,31,33,31,32.7
			c0-0.3-0.1-0.7-0.6-0.9c-0.3-0.2-0.7-0.1-0.9,0c-2.5,1.1-7.5,3.5-7.9,3.7c-0.5,0.2-1,0.1-1.2,0c-0.2-0.1-0.8-0.5-0.8-1.3
			c0-0.7,0.5-1,0.7-1.1c1.4-0.6,4.1-1.9,4.4-2.1c0.4-0.2,0.5-0.6,0.5-0.9s-0.1-0.7-0.6-1c-0.4-0.2-0.7-0.1-0.9,0
			c-2.1,1-6.3,2.9-6.5,3c-0.3,0.1-0.6,0.2-1,0c-0.3-0.1-0.6-0.3-0.6-0.5c-0.1-0.1-0.4-0.6-0.2-1.2c0.2-0.5,0.6-0.8,0.8-0.8
			c0.9-0.4,2.7-1.2,3-1.4c0.4-0.2,0.5-0.5,0.6-0.8c0-0.3-0.1-0.8-0.6-1c-0.4-0.2-0.7-0.1-0.9,0c-0.6,0.3-1.9,0.9-2.4,1.1l0,0
			c-0.6,0.3-1.3,0.6-1.9,0.2c-0.5-0.3-0.8-1.3-0.8-1.7c-0.1-0.7-0.2-1.3-0.2-2c0-7,5.7-12.7,12.7-12.7c4.7,0,8.8,2.6,11,6.4
			c-0.4,0.2-0.7,0.6-0.7,1.1c0,0.7,0.5,1.2,1.2,1.2c0.2,0,0.3,0,0.5-0.1c0.4,1.3,0.7,2.6,0.7,4C38.5,27.8,36.8,31.3,34.1,33.6z"/>
	</g>
	<path class="st0" d="M67.8,37.2c-2.1,0-3.9-0.4-5.4-1.2c-1.5-0.8-2.7-2-3.5-3.5c-0.8-1.5-1.2-3.2-1.2-5.3c0-2,0.4-3.8,1.2-5.3
		c0.8-1.5,2-2.6,3.6-3.4s3.3-1.2,5.3-1.2c2.1,0,3.9,0.4,5.3,1.2c1.5,0.8,2.7,2,3.5,3.4c0.8,1.5,1.2,3.2,1.2,5.3c0,2-0.4,3.8-1.2,5.3
		c-0.8,1.5-2,2.6-3.5,3.4C71.6,36.8,69.8,37.2,67.8,37.2z M67.8,33c1.7,0,3-0.5,3.9-1.5c0.9-1,1.4-2.5,1.4-4.3
		c0-1.8-0.5-3.2-1.4-4.3c-0.9-1-2.2-1.5-3.9-1.5c-1.7,0-3.1,0.5-4,1.5c-0.9,1-1.4,2.4-1.4,4.2c0,1.8,0.5,3.3,1.4,4.3
		C64.7,32.5,66,33,67.8,33z"/>
	<path class="st0" d="M80.9,36.8V10h4.7v15h0.1l8.1-7.4h5.7l-8.3,7.5l9,11.6h-5.6l-6.7-8.7l-2.2,1.8v6.9H80.9z"/>
	<path class="st0" d="M108,36.8c-1.3,0-2.2-0.3-2.9-1c-0.7-0.6-1-1.6-1-2.9V21.4h-3.4v-3.7h3.4V12h4.6v5.7h4.6v3.7h-4.6v11.7h5v3.7
		H108z"/>
	<path class="st0" d="M125.5,37.2c-2.1,0-3.9-0.4-5.4-1.2c-1.5-0.8-2.7-2-3.5-3.5c-0.8-1.5-1.2-3.2-1.2-5.3c0-2,0.4-3.8,1.2-5.3
		c0.8-1.5,2-2.6,3.6-3.4c1.5-0.8,3.3-1.2,5.3-1.2c2.1,0,3.9,0.4,5.3,1.2c1.5,0.8,2.7,2,3.5,3.4c0.8,1.5,1.2,3.2,1.2,5.3
		c0,2-0.4,3.8-1.2,5.3c-0.8,1.5-2,2.6-3.5,3.4C129.3,36.8,127.6,37.2,125.5,37.2z M125.5,33c1.7,0,3-0.5,3.9-1.5
		c0.9-1,1.4-2.5,1.4-4.3c0-1.8-0.5-3.2-1.4-4.3c-0.9-1-2.2-1.5-3.9-1.5c-1.7,0-3.1,0.5-4,1.5c-0.9,1-1.4,2.4-1.4,4.2
		c0,1.8,0.5,3.3,1.4,4.3C122.4,32.5,123.8,33,125.5,33z"/>
</g>
</svg>
