<?xml version="1.0" encoding="utf-8"?>
<!-- Generator: Adobe Illustrator 27.8.0, SVG Export Plug-In . SVG Version: 6.00 Build 0)  -->
<svg version="1.1" id="Layer_1" xmlns="http://www.w3.org/2000/svg" xmlns:xlink="http://www.w3.org/1999/xlink" x="0px" y="0px"
	 viewBox="0 0 138 48" style="enable-background:new 0 0 138 48;" xml:space="preserve">
<style type="text/css">
	.st0{clip-path:url(#SVGID_00000143594009006001629570000010292414264111157424_);}
	.st1{fill:url(#SVGID_00000070802691816419035230000014330231324061721266_);}
	.st2{fill-rule:evenodd;clip-rule:evenodd;fill:#FFFFFF;}
</style>
<g>
	<g>
		<defs>
			<rect id="SVGID_1_" x="2.2" y="0.6" width="47" height="47"/>
		</defs>
		<clipPath id="SVGID_00000155851437779683709870000005145505540664154767_">
			<use xlink:href="#SVGID_1_"  style="overflow:visible;"/>
		</clipPath>
		<g style="clip-path:url(#SVGID_00000155851437779683709870000005145505540664154767_);">
			
				<linearGradient id="SVGID_00000079457069148449253200000009906267840094472380_" gradientUnits="userSpaceOnUse" x1="25.7507" y1="49.4425" x2="25.7507" y2="2.4294" gradientTransform="matrix(1 0 0 -1 0 50)">
				<stop  offset="0" style="stop-color:#6246F5"/>
				<stop  offset="0.493" style="stop-color:#5166EE"/>
				<stop  offset="1" style="stop-color:#56B9F9"/>
			</linearGradient>
			<path style="fill:url(#SVGID_00000079457069148449253200000009906267840094472380_);" d="M49.3,24.1c0,13-10.5,23.5-23.5,23.5
				c-13,0-23.5-10.5-23.5-23.5c0-13,10.5-23.5,23.5-23.5C38.7,0.6,49.3,11.1,49.3,24.1z"/>
			<path class="st2" d="M25.8,11.4c-7,0-12.7,5.7-12.7,12.7c0,0.7,0.1,1.4,0.2,2c0.1,0.4,0.3,1.4,0.8,1.7c0.6,0.4,1.3,0.1,1.9-0.2
				l0,0c0.5-0.2,1.8-0.8,2.4-1.1c0.1-0.1,0.5-0.2,0.9,0c0.5,0.2,0.6,0.7,0.6,1s-0.2,0.7-0.6,0.8c-0.3,0.1-2.1,1-3,1.4
				c-0.2,0.1-0.6,0.3-0.8,0.8c-0.2,0.6,0.1,1.1,0.2,1.3c0.1,0.1,0.3,0.4,0.6,0.5c0.4,0.1,0.7,0.1,1,0c0.2-0.1,4.5-2.1,6.5-3
				c0.1-0.1,0.5-0.2,0.9,0c0.4,0.2,0.6,0.7,0.6,1c0,0.3-0.2,0.7-0.5,0.9c-0.3,0.1-3.1,1.4-4.4,2.1c-0.2,0.1-0.7,0.5-0.8,1.1
				c0,0.8,0.5,1.2,0.8,1.3c0.2,0.1,0.7,0.2,1.2,0c0.5-0.2,5.5-2.6,8-3.7c0.1-0.1,0.5-0.2,0.9,0c0.4,0.2,0.6,0.6,0.6,0.9
				s0,0.5-0.5,0.9c-0.4,0.4-1,0.7-3,1.6c-0.7,0.3-1.2,0.5-1.1,0.9c0.1,0.3,0.3,0.4,0.9,0.4c0.7,0,3.7-0.3,6.8-2.8
				c2.7-2.3,4.4-5.8,4.4-9.6c0-1.4-0.2-2.8-0.7-4c-0.1,0.1-0.3,0.1-0.5,0.1c-0.7,0-1.2-0.5-1.2-1.2c0-0.5,0.3-0.9,0.7-1.1
				C34.6,14,30.5,11.4,25.8,11.4z M30.5,19.4c0,0.7-0.5,1.2-1.2,1.2c-0.7,0-1.2-0.5-1.2-1.2c0-0.7,0.5-1.2,1.2-1.2
				C29.9,18.1,30.5,18.7,30.5,19.4z"/>
		</g>
	</g>
	<path d="M67.8,37.3c-2.1,0-3.9-0.4-5.4-1.2c-1.5-0.8-2.7-2-3.5-3.5c-0.8-1.5-1.2-3.2-1.2-5.3c0-2,0.4-3.8,1.2-5.3
		c0.9-1.5,2-2.6,3.6-3.4s3.3-1.2,5.4-1.2c2.1,0,3.9,0.4,5.4,1.2c1.5,0.8,2.7,2,3.5,3.4c0.8,1.5,1.2,3.3,1.2,5.3c0,2-0.4,3.8-1.2,5.3
		c-0.8,1.5-2,2.6-3.5,3.4C71.6,36.8,69.8,37.3,67.8,37.3z M67.8,33.1c1.7,0,3-0.5,4-1.5c0.9-1,1.4-2.5,1.4-4.3
		c0-1.8-0.5-3.3-1.4-4.3c-0.9-1-2.3-1.5-4-1.5c-1.7,0-3.1,0.5-4,1.5c-0.9,1-1.4,2.4-1.4,4.2c0,1.8,0.5,3.3,1.4,4.3
		C64.7,32.6,66,33.1,67.8,33.1z"/>
	<path d="M80.9,36.9V10.1h4.8v15.1h0.1l8.1-7.4h5.7l-8.3,7.5l9,11.6h-5.6l-6.7-8.7L85.7,30v6.9H80.9z"/>
	<path d="M108.1,36.9c-1.3,0-2.2-0.3-2.9-1c-0.7-0.6-1-1.6-1-2.9V21.4h-3.4v-3.7h3.4V12h4.7v5.7h4.6v3.7h-4.6v11.7h5v3.7H108.1z"/>
	<path d="M125.6,37.3c-2.1,0-3.9-0.4-5.4-1.2c-1.5-0.8-2.7-2-3.5-3.5c-0.8-1.5-1.2-3.2-1.2-5.3c0-2,0.4-3.8,1.2-5.3
		c0.9-1.5,2-2.6,3.6-3.4c1.5-0.8,3.3-1.2,5.4-1.2c2.1,0,3.9,0.4,5.4,1.2c1.5,0.8,2.7,2,3.5,3.4c0.8,1.5,1.2,3.3,1.2,5.3
		c0,2-0.4,3.8-1.2,5.3c-0.8,1.5-2,2.6-3.5,3.4C129.5,36.8,127.7,37.3,125.6,37.3z M125.6,33.1c1.7,0,3-0.5,4-1.5
		c0.9-1,1.4-2.5,1.4-4.3c0-1.8-0.5-3.3-1.4-4.3c-0.9-1-2.3-1.5-4-1.5c-1.7,0-3.1,0.5-4,1.5c-0.9,1-1.4,2.4-1.4,4.2
		c0,1.8,0.5,3.3,1.4,4.3C122.6,32.6,123.9,33.1,125.6,33.1z"/>
</g>
</svg>
